<mxfile host="app.diagrams.net" modified="2024-05-06T12:34:40.465Z" agent="Mozilla/5.0 (Windows NT 10.0; Win64; x64) AppleWebKit/537.36 (KHTML, like Gecko) Chrome/124.0.0.0 Safari/537.36" etag="ehOMd301plxhclTOk-RY" version="24.3.1" type="github">
  <diagram name="Página-1" id="7zg1vb6-w1QTxtrZUW49">
    <mxGraphModel dx="954" dy="610" grid="1" gridSize="10" guides="1" tooltips="1" connect="1" arrows="1" fold="1" page="1" pageScale="1" pageWidth="827" pageHeight="1169" math="0" shadow="0">
      <root>
        <mxCell id="0" />
        <mxCell id="1" parent="0" />
        <mxCell id="FXuq4aVfFrV42olOrEqt-1" value="" style="ellipse;whiteSpace=wrap;html=1;aspect=fixed;fillColor=#000000;" vertex="1" parent="1">
          <mxGeometry x="404" y="60" width="20" height="20" as="geometry" />
        </mxCell>
        <mxCell id="FXuq4aVfFrV42olOrEqt-2" value="Coletar informações sobre a planta" style="rounded=1;whiteSpace=wrap;html=1;" vertex="1" parent="1">
          <mxGeometry x="331" y="110" width="166" height="60" as="geometry" />
        </mxCell>
        <mxCell id="FXuq4aVfFrV42olOrEqt-3" value="Coletar informações sobre a irrigação" style="rounded=1;whiteSpace=wrap;html=1;" vertex="1" parent="1">
          <mxGeometry x="331" y="200" width="166" height="60" as="geometry" />
        </mxCell>
        <mxCell id="FXuq4aVfFrV42olOrEqt-4" value="Coletar informações sobre a adubagem" style="rounded=1;whiteSpace=wrap;html=1;" vertex="1" parent="1">
          <mxGeometry x="331" y="290" width="166" height="60" as="geometry" />
        </mxCell>
        <mxCell id="FXuq4aVfFrV42olOrEqt-5" value="Salvar informações" style="rounded=1;whiteSpace=wrap;html=1;" vertex="1" parent="1">
          <mxGeometry x="331" y="380" width="166" height="60" as="geometry" />
        </mxCell>
        <mxCell id="FXuq4aVfFrV42olOrEqt-6" value="Gerar documento excel" style="rounded=1;whiteSpace=wrap;html=1;" vertex="1" parent="1">
          <mxGeometry x="331" y="470" width="166" height="60" as="geometry" />
        </mxCell>
        <mxCell id="FXuq4aVfFrV42olOrEqt-7" value="" style="endArrow=none;html=1;rounded=0;entryX=0.5;entryY=1;entryDx=0;entryDy=0;exitX=0.5;exitY=0;exitDx=0;exitDy=0;" edge="1" parent="1" source="FXuq4aVfFrV42olOrEqt-2" target="FXuq4aVfFrV42olOrEqt-1">
          <mxGeometry width="50" height="50" relative="1" as="geometry">
            <mxPoint x="390" y="370" as="sourcePoint" />
            <mxPoint x="440" y="320" as="targetPoint" />
          </mxGeometry>
        </mxCell>
        <mxCell id="FXuq4aVfFrV42olOrEqt-8" value="" style="endArrow=none;html=1;rounded=0;entryX=0.5;entryY=1;entryDx=0;entryDy=0;exitX=0.5;exitY=0;exitDx=0;exitDy=0;" edge="1" parent="1" source="FXuq4aVfFrV42olOrEqt-3" target="FXuq4aVfFrV42olOrEqt-2">
          <mxGeometry width="50" height="50" relative="1" as="geometry">
            <mxPoint x="390" y="230" as="sourcePoint" />
            <mxPoint x="440" y="180" as="targetPoint" />
          </mxGeometry>
        </mxCell>
        <mxCell id="FXuq4aVfFrV42olOrEqt-10" value="" style="endArrow=none;html=1;rounded=0;entryX=0.5;entryY=1;entryDx=0;entryDy=0;exitX=0.5;exitY=0;exitDx=0;exitDy=0;" edge="1" parent="1" source="FXuq4aVfFrV42olOrEqt-4" target="FXuq4aVfFrV42olOrEqt-3">
          <mxGeometry width="50" height="50" relative="1" as="geometry">
            <mxPoint x="360" y="330" as="sourcePoint" />
            <mxPoint x="410" y="280" as="targetPoint" />
          </mxGeometry>
        </mxCell>
        <mxCell id="FXuq4aVfFrV42olOrEqt-11" value="" style="endArrow=none;html=1;rounded=0;entryX=0.5;entryY=1;entryDx=0;entryDy=0;exitX=0.5;exitY=0;exitDx=0;exitDy=0;" edge="1" parent="1" source="FXuq4aVfFrV42olOrEqt-5" target="FXuq4aVfFrV42olOrEqt-4">
          <mxGeometry width="50" height="50" relative="1" as="geometry">
            <mxPoint x="400" y="460" as="sourcePoint" />
            <mxPoint x="450" y="410" as="targetPoint" />
          </mxGeometry>
        </mxCell>
        <mxCell id="FXuq4aVfFrV42olOrEqt-12" value="" style="endArrow=none;html=1;rounded=0;entryX=0.5;entryY=1;entryDx=0;entryDy=0;exitX=0.5;exitY=0;exitDx=0;exitDy=0;" edge="1" parent="1" source="FXuq4aVfFrV42olOrEqt-6" target="FXuq4aVfFrV42olOrEqt-5">
          <mxGeometry width="50" height="50" relative="1" as="geometry">
            <mxPoint x="370" y="540" as="sourcePoint" />
            <mxPoint x="420" y="490" as="targetPoint" />
          </mxGeometry>
        </mxCell>
        <mxCell id="FXuq4aVfFrV42olOrEqt-14" value="" style="ellipse;whiteSpace=wrap;html=1;aspect=fixed;" vertex="1" parent="1">
          <mxGeometry x="389" y="555" width="50" height="50" as="geometry" />
        </mxCell>
        <mxCell id="FXuq4aVfFrV42olOrEqt-13" value="" style="ellipse;whiteSpace=wrap;html=1;aspect=fixed;fillColor=#000000;" vertex="1" parent="1">
          <mxGeometry x="403" y="570" width="20" height="20" as="geometry" />
        </mxCell>
        <mxCell id="FXuq4aVfFrV42olOrEqt-16" value="" style="endArrow=none;html=1;rounded=0;entryX=0.5;entryY=1;entryDx=0;entryDy=0;exitX=0.5;exitY=0;exitDx=0;exitDy=0;" edge="1" parent="1" source="FXuq4aVfFrV42olOrEqt-14" target="FXuq4aVfFrV42olOrEqt-6">
          <mxGeometry width="50" height="50" relative="1" as="geometry">
            <mxPoint x="290" y="610" as="sourcePoint" />
            <mxPoint x="340" y="560" as="targetPoint" />
          </mxGeometry>
        </mxCell>
        <mxCell id="FXuq4aVfFrV42olOrEqt-17" value="&lt;font style=&quot;font-size: 24px;&quot;&gt;Gerar Relatório&lt;/font&gt;" style="text;html=1;align=center;verticalAlign=middle;whiteSpace=wrap;rounded=0;" vertex="1" parent="1">
          <mxGeometry x="324" y="10" width="180" height="30" as="geometry" />
        </mxCell>
      </root>
    </mxGraphModel>
  </diagram>
</mxfile>
